<?xml version="1.0" standalone="no"?><!DOCTYPE svg PUBLIC "-//W3C//DTD SVG 1.1//EN" "http://www.w3.org/Graphics/SVG/1.1/DTD/svg11.dtd"><svg t="1531897059284" class="icon" style="" viewBox="0 0 1024 1024" version="1.1" xmlns="http://www.w3.org/2000/svg" p-id="4184" xmlns:xlink="http://www.w3.org/1999/xlink" width="64" height="64"><defs><style type="text/css"></style></defs><path d="M768 480c0 16-12.8 32-32 32h-192v96h160c19.2 0 32 16 32 32s-12.8 32-32 32h-160v128c0 16-12.8 32-32 32-16 0-32-16-32-32v-128h-160c-16 0-32-16-32-32s16-32 32-32h160v-96H288c-16 0-32-16-32-32s16-32 32-32h153.6l-86.4-144c-9.6-16-3.2-35.2 9.6-44.8 16-9.6 35.2-3.2 44.8 9.6l96 160c3.2 6.4 3.2 9.6 3.2 16 0-6.4 0-9.6 3.2-16l96-160c12.8-12.8 32-16 48-9.6 16 9.6 19.2 28.8 9.6 44.8L579.2 448H736c16 0 32 16 32 32z" p-id="4185"></path><path d="M1020.8 112l-54.4 182.4c-3.2 12.8-12.8 22.4-22.4 28.8-6.4 3.2-16 6.4-22.4 6.4-6.4 0-9.6 0-16-3.2l-179.2-57.6c-16-6.4-25.6-22.4-19.2-41.6 6.4-16 22.4-25.6 41.6-22.4l128 41.6C790.4 131.2 656 64 512 64 265.6 64 64 265.6 64 512s201.6 448 448 448c128 0 249.6-54.4 332.8-150.4 12.8-12.8 32-12.8 44.8-3.2 12.8 12.8 16 32 3.2 44.8-96 108.8-236.8 169.6-380.8 169.6C230.4 1024 0 793.6 0 512S230.4 0 512 0c163.2 0 316.8 76.8 412.8 208L960 92.8c6.4-16 22.4-25.6 38.4-22.4 19.2 6.4 28.8 22.4 22.4 41.6z" p-id="4186"></path></svg>
